<?xml version="1.0" encoding="UTF-8" standalone="no"?><!-- Generator: Gravit.io --><svg xmlns="http://www.w3.org/2000/svg" xmlns:xlink="http://www.w3.org/1999/xlink" style="isolation:isolate" viewBox="0 0 172 172" width="172pt" height="172pt"><defs><clipPath id="_clipPath_YB5TUb5vINZUSHoIZKEkthspEbxCX7y4"><rect width="172" height="172"/></clipPath></defs><g clip-path="url(#_clipPath_YB5TUb5vINZUSHoIZKEkthspEbxCX7y4)"><path d=" M 30.021 2 C 30.021 2 13.911 9.67 17.865 17.578 C 20.4 22.648 25.252 27.944 32.256 31.109 C 25.818 41.06 22.021 52.974 22.021 66 L 22.021 70.688 L 0.369 106.526 L 9.334 133.281 L 22.021 126.938 L 22.021 162 L 78.021 162 L 78.021 138 L 94.021 138 L 94.021 162 L 150.021 162 L 150.021 126.953 L 162.693 133.281 L 172.047 106.526 L 150.021 70.688 L 150.021 66 C 150.021 52.974 146.224 41.06 139.787 31.109 C 146.785 27.944 151.627 22.648 154.162 17.578 C 158.116 9.67 142.021 2 142.021 2 L 142.021 2 C 142.021 2 141.911 6.346 139.865 10.438 C 138.012 14.144 135.544 17.197 128.209 17.766 C 116.9 7.914 102.127 2 86.021 2 C 69.916 2 55.143 7.914 43.834 17.766 C 36.496 17.197 34.015 14.144 32.162 10.438 C 30.116 6.346 30.021 2 30.021 2 L 30.021 2 Z " fill="rgb(0,0,0)"/><path d=" M 86.021 18 C 112.811 18 134.021 38.179 134.021 66 L 134.021 77.328 L 156.865 100.172 L 153.349 110.734 L 134.021 101.063 L 134.021 146 L 110.021 146 L 110.021 122 L 62.021 122 L 62.021 146 L 38.021 146 L 38.021 101.063 L 18.677 110.734 L 15.162 100.172 L 38.021 77.328 L 38.021 66 C 38.021 38.179 59.232 18 86.021 18 Z " fill="rgb(255,255,255)"/><path d=" M 102.021 98 C 102.021 89.16 94.853 82 86.021 82 C 77.181 82 70.021 89.16 70.021 98 L 102.021 98 Z " fill="rgb(0,0,0)"/><path d=" M 58.24 46.76 C 53.763 51.237 53.767 58.493 58.24 62.966 C 62.717 67.443 69.969 67.443 74.446 62.966 L 58.24 46.76 Z " fill="rgb(0,0,0)"/><path d=" M 116.499 46.259 C 121.068 50.828 121.064 58.234 116.499 62.799 C 111.929 67.369 104.527 67.369 99.958 62.799 L 116.499 46.259 Z " fill="rgb(0,0,0)"/></g></svg>