<?xml version="1.0" standalone="no"?>
<!DOCTYPE svg PUBLIC "-//W3C//DTD SVG 20010904//EN"
 "http://www.w3.org/TR/2001/REC-SVG-20010904/DTD/svg10.dtd">
<svg version="1.0" xmlns="http://www.w3.org/2000/svg"
 width="700.000000pt" height="700.000000pt" viewBox="0 0 700.000000 700.000000"
 preserveAspectRatio="xMidYMid meet">
<metadata>
Created by potrace 1.14, written by Peter Selinger 2001-2017
</metadata>
<g transform="translate(0.000000,700.000000) scale(0.100000,-0.100000)"
fill="#000000" stroke="none">
<path d="M1120 6864 c-260 -153 -406 -314 -418 -460 -5 -63 27 -141 107 -257
53 -77 185 -213 264 -272 50 -38 192 -125 205 -125 4 0 13 -4 20 -9 11 -6 6
-20 -21 -62 -148 -234 -270 -548 -332 -854 -32 -160 -43 -270 -51 -512 l-7
-202 -437 -723 -437 -723 180 -540 c99 -297 182 -542 184 -545 2 -2 118 53
258 123 l255 127 2 -713 3 -712 1140 0 1140 0 3 488 2 487 320 0 320 0 2 -487
3 -488 1140 0 1140 0 3 712 2 713 255 -127 c140 -70 256 -125 258 -123 5 6
365 1037 373 1068 4 15 -116 218 -440 746 l-446 725 0 129 c0 517 -124 993
-363 1395 -26 43 -47 82 -47 86 0 4 17 15 38 25 76 36 231 148 304 218 88 86
173 198 220 287 28 56 33 74 33 135 -1 97 -33 156 -144 267 -86 86 -178 153
-303 223 l-67 37 -6 -48 c-14 -103 -47 -212 -91 -303 -82 -166 -188 -245 -373
-277 l-89 -16 -83 67 c-635 512 -1483 697 -2279 496 -365 -92 -714 -266 -995
-495 -44 -36 -88 -65 -98 -65 -10 0 -53 7 -95 15 -165 34 -273 114 -351 264
-42 81 -91 244 -91 305 0 60 -10 60 -110 0z m2630 -615 c291 -32 600 -142 840
-299 119 -79 172 -122 283 -229 316 -306 503 -687 562 -1144 10 -83 15 -208
15 -420 l0 -302 466 -466 466 -467 -67 -203 c-37 -112 -71 -208 -75 -212 -4
-5 -183 80 -399 187 l-391 196 0 -915 0 -915 -485 0 -485 0 0 490 0 490 -977
-2 -978 -3 -3 -487 -2 -488 -485 0 -485 0 0 915 0 915 -391 -196 c-216 -107
-395 -192 -399 -187 -4 4 -37 100 -73 213 l-66 205 464 465 465 465 0 281 c0
407 22 581 106 832 221 663 774 1137 1474 1264 192 34 407 40 620 17z"/>
<path d="M4406 4781 l-338 -338 38 -33 c53 -46 146 -87 230 -101 234 -38 479
128 533 362 33 142 -7 308 -99 415 l-27 32 -337 -337z"/>
<path d="M2334 5058 c-77 -92 -117 -246 -95 -368 63 -351 474 -508 754 -287
l39 30 -329 329 c-180 180 -331 328 -335 328 -3 0 -19 -15 -34 -32z"/>
<path d="M3340 3644 c-262 -68 -464 -303 -487 -566 l-6 -68 652 0 651 0 0 48
c0 69 -24 155 -72 252 -77 158 -248 294 -419 335 -80 19 -246 18 -319 -1z"/>
</g>
</svg>
